<svg class="prefix__logo" height="180" viewBox="-256 -256 1800 512" style="margin:-.25em 0 0;vertical-align:middle" display="inline-block">
  <path d="M0-256l221.703 128v256L0 256l-221.703-128v-256z" fill="#fff"/>
  <ellipse rx="75" ry="196" stroke-width="16" stroke-dasharray="365.26 81.74" stroke-dashoffset="1131.969" fill="none" stroke="#673ab8" transform="rotate(52)"/>
  <ellipse rx="75" ry="196" stroke-width="16" stroke-dasharray="403.123 43.877" stroke-dashoffset="-963.008" fill="none" stroke="#673ab8" transform="rotate(-52)"/>
  <circle r="34" fill="#673ab8"/>
  <path fill="#fff" d="M289.85 25.25V125H272v-247.63h63.88q43.57 0 65.71 19.08 22.14 19.07 22.14 54.42 0 16.28-6.04 29.93-6.04 13.65-17.42 23.54-11.37 9.88-27.64 15.4-16.28 5.51-36.75 5.51h-46.03m0-14.35h46.03q16.45 0 29.39-4.55 12.96-4.55 21.97-12.6 9.01-8.05 13.82-18.99 4.82-10.94 4.82-23.89 0-28.52-17.59-43.92-17.59-15.4-52.41-15.4h-46.03V10.9zM497.58 13v112h-17.85v-247.63h63.17q42.88 0 64.05 16.54 21.18 16.54 21.18 48.56 0 14.18-4.9 25.9-4.9 11.73-14.09 20.57Q599.95-2.23 587 3.46q-12.95 5.69-29.22 7.44 4.2 2.62 7.52 7L650.53 125h-15.58q-2.8 0-4.81-1.05t-3.94-3.5L546.93 20q-2.98-3.85-6.39-5.43Q537.13 13 529.95 13h-32.37m0-13.3h43.05q16.45 0 29.48-3.94 13.04-3.94 22.05-11.29 9.02-7.35 13.74-17.67 4.73-10.33 4.73-23.28 0-26.42-17.33-39.2-17.32-12.77-50.4-12.77h-45.32V-.3zm346.15-122.33v14.88H713.35v100.1h108.5V6.87h-108.5v103.26h130.38V125h-148.4v-247.63h148.4zM1088.55 125h-13.82q-2.45 0-4.03-1.31-1.57-1.31-2.45-3.41l-29.22-71.93H917.4l-29.05 71.93q-.7 1.92-2.45 3.32-1.75 1.4-4.2 1.4h-13.65l101.33-247.63h17.85L1088.55 125M922.83 35.05h110.95L983.2-90.08q-1.22-2.97-2.45-6.73-1.22-3.77-2.45-7.97-1.22 4.2-2.45 7.97-1.22 3.76-2.45 6.91L922.83 35.05zm379.57 48.3q1.75 0 2.98 1.22l7 7.53q-7.71 8.23-16.8 14.79-9.11 6.56-19.87 11.2-10.76 4.63-23.62 7.17-12.87 2.54-28.26 2.54-25.73 0-47.17-9.01t-36.75-25.55q-15.31-16.54-23.88-39.99-8.58-23.45-8.58-52.15 0-28.18 8.84-51.45 8.84-23.28 24.85-39.99t38.32-25.9q22.32-9.19 49.26-9.19 13.48 0 24.68 2.02 11.2 2.01 20.91 5.77 9.72 3.76 18.29 9.36 8.57 5.6 16.8 12.95l-5.43 7.88q-1.39 2.1-4.37 2.1-1.57 0-4.02-1.84-2.45-1.84-6.22-4.55-3.76-2.71-9.1-5.95t-12.68-5.95q-7.36-2.71-16.98-4.55-9.63-1.84-21.88-1.84-22.57 0-41.47 7.79t-32.55 22.23q-13.65 14.43-21.26 35-7.61 20.56-7.61 46.11 0 26.25 7.52 46.9 7.53 20.65 20.82 34.91 13.3 14.26 31.42 21.88 18.11 7.61 39.29 7.61 13.29 0 23.71-1.75 10.41-1.75 19.16-5.25t16.28-8.58q7.52-5.07 14.87-11.9.88-.7 1.66-1.13.79-.44 1.84-.44zm228.02-205.98v15.23h-86.97V125h-17.85v-232.4h-87.5v-15.23h192.32z"/>
</svg>